<svg id="Layer_1" data-name="Layer 1" xmlns="http://www.w3.org/2000/svg" viewBox="0 0 59.39 80.77"><defs><style>.cls-1{fill:#a09b8c;}</style></defs><title>clash_logo</title><path class="cls-1" d="M29.7,53.25S43,46.08,41.94,24.06C37.26,28,29.7,27.7,29.7,27.7s-7.57.3-12.25-3.64C16.38,46.08,29.7,53.25,29.7,53.25Z"/><path class="cls-1" d="M.34,29.19c-.22-2.33-.31-4.68-.33-7V21L5.8,25c2.59,1.69,5.61,3.62,8.21,5.17a45.51,45.51,0,0,0,1.41,7.55L10.8,35.32a24,24,0,0,0,1.53,5h0C20.2,59.53,50.7,67.1,50.7,67.1s-6,13.67-21,13.67c-14.85,0-20.84-13.3-21-13.66h.05a81.86,81.86,0,0,0,9.56-3.21c2.17,1.38,5.69,3.36,8.22,4.6-1.73.69-3.45,1.63-5.33,2.47a15.46,15.46,0,0,0,8.5,2.51,12.72,12.72,0,0,0,8.91-2.56C10.94,59.93,2,45.4.4,29.81Z"/><path class="cls-1" d="M47.43,39.37C44.86,46.44,39.23,52,33,56.2a79.92,79.92,0,0,0,7.69,3.73C57.12,48.85,59.39,35.13,59.39,21c0,0-8,5.42-14,9A46.16,46.16,0,0,1,44,37.57l4.7-2.49C48.08,37.6,47.49,39.2,47.43,39.37Z"/><path class="cls-1" d="M22.91,23.16a23.94,23.94,0,0,0,6.76.9,23.94,23.94,0,0,0,6.76-.9c-3.92-3.24.41-4.66,1.52-7.88.92-2.64-1.59-4.52-4.3-7.64S30.65,2.5,31.94,0c-2,1.09-4.43,4.81-3.48,7.37s2.06,5.91-1.49,6.09-3.06-4.2-3.06-4.2-5.46,5.09-1.9,11.6A9.08,9.08,0,0,1,22.91,23.16Z"/></svg>